<?xml version="1.0" encoding="UTF-8"?>
<svg id="Capa_2" data-name="Capa 2" xmlns="http://www.w3.org/2000/svg" xmlns:xlink="http://www.w3.org/1999/xlink" viewBox="0 0 485.86 362.69">
  <defs>
    <style>
      .cls-1 {
        fill: #fff;
      }

      .cls-2 {
        fill: #fafeff;
      }

      .cls-3 {
        fill: #39005e;
      }

      .cls-4 {
        fill: #fcaefc;
      }

      .cls-5 {
        clip-path: url(#clippath-2);
      }

      .cls-6, .cls-7 {
        isolation: isolate;
      }

      .cls-8 {
        fill: #0d004c;
      }

      .cls-9 {
        fill: #f5f7f7;
      }

      .cls-10 {
        clip-path: url(#clippath-1);
      }

      .cls-11 {
        fill: #d2f9ff;
      }

      .cls-12 {
        fill: #f9f9f9;
      }

      .cls-13 {
        clip-path: url(#clippath);
      }

      .cls-14 {
        fill: #f7f9f9;
      }

      .cls-15 {
        fill: #fcd4ee;
      }

      .cls-16 {
        fill: none;
      }

      .cls-17 {
        clip-path: url(#clippath-3);
      }

      .cls-7 {
        opacity: .1;
      }

      .cls-18 {
        fill: #f5a1f7;
      }

      .cls-19 {
        fill: #68e1fd;
      }

      .cls-20 {
        fill: #fcfcfc;
      }
    </style>
    <clipPath id="clippath">
      <path class="cls-16" d="M235.77,358.86L9.47,225.16c-7.2-4-13.4-10.7-6.4-15L230.17,79.26c3.4-2.1,8.6-3.5,12.1-1.5l237.5,137.8c7.2,4.2,8.5,15.9,1.3,20l-215.5,123c-9.2,5.4-20.5,5.5-29.8,.3Z"/>
    </clipPath>
    <clipPath id="clippath-1">
      <rect class="cls-16" x="-5.03" y="71.76" width="495.9" height="295.9"/>
    </clipPath>
    <clipPath id="clippath-2">
      <path class="cls-16" d="M263.67,.66c-18.4,10.9-63.8,37.8-77.4,45.7-2.4,1.4-3.8,3.9-3.8,6.6V239.46c-.3,3.8,4,7.3,7.5,5.3l76.4-43.5c3.1-1.8,5-4.2,5-7.8V5.16c0-2.9-2.3-5.2-5.2-5.1-.8-.1-1.7,.2-2.5,.6Z"/>
    </clipPath>
    <clipPath id="clippath-3">
      <rect class="cls-16" x="177.47" y="-4.94" width="98.9" height="255.3"/>
    </clipPath>
  </defs>
  <g id="Layer_1" data-name="Layer 1">
    <g class="cls-13">
      <g class="cls-10">
        <image class="cls-6" width="1034" height="617" transform="translate(-5.32 71.54) scale(.48)" xlink:href="../../Downloads/EE6E5E5A.jpg"/>
      </g>
    </g>
    <path class="cls-7" d="M170.97,205.56s.9,2.3-2.5,4.1-61.2,42-61.2,42l-14.3-8.3,70.3-39.4,7.7,1.6Z"/>
    <path class="cls-7" d="M271.47,187.06s.5,15.3-4.5,19.8-103.1,73.2-103.1,73.2l-30.4-18.3,138-74.7Z"/>
    <path class="cls-7" d="M330.67,286.96l-71.1,62c.2,2-47.4-28.6-47.4-28.6l89.4-44.1"/>
    <g class="cls-5">
      <g class="cls-17">
        <image class="cls-6" width="206" height="532" transform="translate(177.4 -5.04) scale(.48)" xlink:href="../../Downloads/EE6E5E5E.jpg"/>
      </g>
    </g>
    <path class="cls-11" d="M270.97,2.86l-24.3,14v5.2c0,.9-.5,1.7-1.2,2.2l-18.6,10.8c-.8,.5-1.8,.2-2.2-.6-.1-.2-.2-.5-.2-.8v-3.8l-34.9,20.5c-.7,.4-1.1,1.1-1.1,1.9V238.66c0,.8,.7,1.5,1.5,1.5,.3,0,.5-.1,.8-.2l80.9-46.9c.3,2.9-1.1,5.8-3.6,7.4-4.2,2.7-77.9,44.4-77.9,44.4,0,0-5.8,2.6-7.5-4.3V52.96c0-2.5,1.2-4.8,3.2-6.2,3.4-2.4,78-46.1,78-46.1,0,0,4.5-2.5,7.1,2.2Z"/>
    <path class="cls-9" d="M228.07,83.96c4.1-4.2,8.6-6.5,12.8-6.5,.8,0,1.6,.1,2.3,.2,3.2,.8,6,2.7,7.9,5.4,1.8-2.6,3.9-5,6-7.3-3.1-3.6-7.3-6.1-11.9-7.2-8-1.7-16.4,1.4-23.6,8.8-2.1,2.2-4.1,4.6-5.7,7.2,2.6,1.6,5.2,3.3,7.8,5,1.2-1.8,2.7-3.8,4.4-5.6Z"/>
    <path class="cls-1" d="M228.17,149.26c-4.4-1.3-8.1-5.4-10.4-11.6-2.7-7.3-3.1-16.5-1.2-25.8,1.1-5.5,3.1-10.8,5.9-15.6-2.6-1.7-5.1-3.4-7.8-5-3.4,5.8-5.8,12.1-7.2,18.7-2.3,11-1.8,22,1.6,30.9s9,14.9,16.1,17.1c.9-2.9,1.8-5.8,3-8.7Z"/>
    <path class="cls-1" d="M263.17,91.16c-1.2-3.2-2.8-6.2-4.8-8.9-2.2,2.4-4.2,4.9-6,7.5,.9,1.5,1.6,3,2.2,4.6,2.7,7.3,3.1,16.5,1.2,25.8s-6.1,17.5-11.5,23.1c-4.6,4.7-9.5,6.9-14,6.4-1.2,2.9-2.1,5.9-3.1,8.9h.1c1.4,.3,2.9,.4,4.3,.4,6.7,0,13.4-3.2,19.3-9.3,6.7-6.8,11.6-16.7,13.9-27.7s1.7-21.9-1.6-30.8Z"/>
    <ellipse class="cls-12" cx="241.13" cy="119.52" rx="10.5" ry="5.8" transform="translate(95.67 345.95) rotate(-83.65)"/>
    <path class="cls-1" d="M264.27,164.26l-53.4,29.8c-.9,.6-1.1,1.7-.5,2.6,.5,.8,1.5,1,2.3,.7l53.4-29.8c.8-.6,1-1.7,.5-2.6-.6-.8-1.5-1.1-2.3-.7Z"/>
    <path class="cls-14" d="M263.37,157.26l-53.4,29.8c-2.1,1.2-.3,4.4,1.8,3.2l53.4-29.8c.9-.5,1.2-1.6,.7-2.5-.4-.9-1.6-1.2-2.5-.7Z"/>
    <path d="M331.07,255.16c.7,1.6,3.6,23.6,3.5,28s-6.7,4.7-8.7,4.6-5.9-2-8.4-2.1-16.3-2.7-15.9-6.3,2.8-7.2,5.9-7.4,11.5,.4,11.5,.4l-.8-20"/>
    <path class="cls-19" d="M328.27,151.06c0-.3,3.4,16.2,3.7,30.1,.2,10.4,3.4,88.2,3.4,88.2,0,0-6,3.6-22.8-1.2-2.4-.7-4.7-72.3-4.7-72.3l2.1-35"/>
    <path d="M305.47,272.36c3.9,4.3,9.4,6.9,15.2,7,3.1,0,6.2-.3,9.3-.9,1.5-.2,2.9-.6,4.2-1.4,.2,2,.3,4.1,.3,6.1-.2,4.3-6.8,4.7-8.8,4.5s-5.9-2-8.4-2.1-16.2-2.8-15.8-6.5c.4-2.8,1.9-5.5,4-6.7Z"/>
    <path d="M272.47,104.46s-3.1-4.5-3.1-6.8,2.7,.7,2.7,.7l-.4-5.6s2.1,3.3,3.1,4.8,4.4,8.7,5,10,6.1,4.8,6.1,4.8c0,0-1.6,5.1-3.2,5.5s-9.8-7-9.8-7l-.4-6.4Z"/>
    <path d="M282.67,106.36s-6.1,5.4-5,11.5c0,0,7.6,15.2,15.9,17.7s13-13.8,10.7-16.2-21.6-13-21.6-13Z"/>
    <path class="cls-18" d="M282.67,106.36s-6.1,5.4-5,11.5c0,0,7.6,15.2,15.9,17.7s13-13.8,10.7-16.2-21.6-13-21.6-13Z"/>
    <path d="M263.47,122.06s-2.8-2.6-2.4-3.4,1.8-8.1,1.1-9.6c-1.1-2.6-3.8,3.2-3.8,3.2l-.8-10.2s-3,3.2-2.8,5.1-.1,14,0,14.9,2.7,7.5,2.7,7.5"/>
    <path d="M297.07,280.36c.6,1.6,2.5,23.8,2,28.1s-7,4.4-8.9,4.1-5.8-2.3-8.3-2.5-16.1-3.5-15.5-7.1,3.1-7,6.2-7,11.5,.9,11.5,.9l.2-20"/>
    <path class="cls-19" d="M296.57,158.86c-7,20.5-11.9,41.7-14.6,63.2-1,8.5-4,65.6-4,65.6,0,0,10.6,7.3,23.4,3.2,0,0,9.6-69.7,10-71.1,4.9-19.8,5.4-32.1,6.6-62"/>
    <path class="cls-4" d="M295.37,137.16c-.6-8.3-3.6-12.6-1.7-20.6,6-6.5,17.2-14.3,18.4-14.6l6.3,1.5c5.5,1.3,9.4,6.1,9.5,11.7,.3,12.8,.8,34.3,.3,36-.5,1.5-13.1,12.5-31.6,7.8-.5-7.4-.7-14.6-1.2-21.8Z"/>
    <path class="cls-15" d="M298.67,84.76s-2.6,19.2,4.5,20.9,14.9-6.8,15.2-10.8-10.3-17.1-19.7-10.1Z"/>
    <path d="M294.87,88.86c-1.1-.1-1.9-1-1.8-2.1v-.2c.7-4,3.5-12.1,13.6-12.3,7.8-.1,12.6,3.3,14.9,8.5h0l.1,.3,.6,1.7c.7,2.5,1,5.1,.7,7.7-.3,7.3-5.9,11.4-12.9,12.3,0,0,2.9-10.8-1.8-9.1s-8.6,1.2-7.1-6.3l-6.3-.5Z"/>
    <path d="M314.07,83.76l-.7,.7s0-.4,.7-.7Z"/>
    <path d="M316.57,80.96c1.4-.4,17.2-6.4,21.8,1.2s.6,19.2,6.2,20.8,21.7,.7,23.2,7.9c1.5,7-5.9,11-4.1,14.2,4.4,2.8,7.9,6.4,5.9,12-1.1,2.9-3.3,5.3-6,6.9-6.6,3.9-15.7,.9-21.1-3.7-4.8-4.1-4.4-8.9-2.5-14.3,1.4-4.2,3.9-9.3-.8-12.3-7-4.6-15,.7-17.4-4.6s7.8-23.3-.4-24.9c-4.5-.9-6.5-.6-7.4-.2l2.6-3Z"/>
    <path class="cls-4" d="M256.67,129.16c1-3.4,3.5-6.1,6.8-7.4,6,5.7,13.4,11.9,15.8,10.9,3.5-1.4,10.6-18,20.7-18.8s9.8,13.1,9.8,13.1c0,0-17.6,27.1-27.1,27.6-7.7,.4-21.6-13.1-27.1-19.6,.2-2,.5-3.9,1.1-5.8Z"/>
    <path d="M266.27,302.96c.3-2.5,1.7-4.8,3.8-6.3,2.4,3.4,5.9,5.9,10,6.8,6.3,1.4,13,.8,19-1.5,.1,2.2,.2,4.3,.1,6.5-.4,4.3-7,4.4-8.9,4.1s-5.8-2.3-8.3-2.5-16.3-3.5-15.7-7.1Z"/>
    <path class="cls-3" d="M129.87,230.96l38.6-21.2c1.5-.8,2.5-2.4,2.5-4.1v-70.8c0-2.6-2.1-4.7-4.7-4.7-.8,0-1.6,.2-2.4,.6l-38.6,22.3c-1.5,.8-2.4,2.4-2.4,4.1v69.7c0,2.6,2.1,4.7,4.7,4.7,.8-.1,1.6-.3,2.3-.6Z"/>
    <path class="cls-1" d="M132.27,181.56v17c0,4.9,7.7,4.9,7.7,0v-17c-.1-4.9-7.7-4.9-7.7,0Z"/>
    <path class="cls-1" d="M142.67,164.16v27.4c0,4.9,7.6,4.9,7.6,0v-27.4c0-4.9-7.6-4.9-7.6,0Z"/>
    <path class="cls-1" d="M154.97,144.36v42c0,4.9,7.7,4.9,7.7,0v-42c0-4.9-7.7-5-7.7,0Z"/>
    <path class="cls-2" d="M145.47,203.26l-9.5,5c-1.4,.7-.2,2.7,1.2,2l9.5-5c1.3-.7,.1-2.7-1.2-2Z"/>
    <path class="cls-20" d="M162.07,202.06c-8.8,4.7-17.7,9.3-26.7,13.6-1.4,.7-.2,2.7,1.2,2,9-4.4,17.9-8.9,26.7-13.6,1.3-.7,.1-2.7-1.2-2Z"/>
    <path class="cls-8" d="M156.07,121.16l40.8-22.4c1.6-.9,2.6-2.6,2.6-4.4V19.76c0-2.8-2.3-5-5-5-.9,0-1.7,.2-2.5,.7l-40.8,23.5c-1.5,.9-2.5,2.5-2.5,4.3V116.86c0,2.8,2.3,5,5,5,.9-.1,1.7-.3,2.4-.7Z"/>
    <path class="cls-1" d="M158.57,69.16v17.9c0,5.2,8.1,5.2,8.1,0v-17.9c0-5.2-8.1-5.2-8.1,0Z"/>
    <path class="cls-1" d="M169.57,50.76v28.9c0,5.2,8.1,5.2,8.1,0v-28.9c0-5.2-8.1-5.2-8.1,0Z"/>
    <path class="cls-12" d="M182.57,29.86v44.3c0,5.2,8.1,5.2,8.1,0V29.86c0-5.2-8.1-5.2-8.1,0Z"/>
    <path class="cls-1" d="M172.47,92.06l-10,5.2c-1.4,.7-.2,2.9,1.2,2.1l10-5.2c1.5-.7,.3-2.9-1.2-2.1Z"/>
    <path class="cls-1" d="M189.97,90.76c-9.3,5-18.7,9.8-28.1,14.4-1.4,.7-.2,2.8,1.3,2.1,9.5-4.6,18.8-9.4,28.1-14.4,1.4-.7,.1-2.9-1.3-2.1Z"/>
  </g>
</svg>